<?xml version="1.0" encoding="UTF-8" standalone="no"?>
<!DOCTYPE svg PUBLIC "-//W3C//DTD SVG 1.1//EN"
 "http://www.w3.org/Graphics/SVG/1.1/DTD/svg11.dtd">
<!-- Generated by graphviz version 2.38.0 (20140413.2041)
 -->
<!-- Title: models_diagram Pages: 1 -->
<svg width="918pt" height="626pt"
 viewBox="0.00 0.00 918.00 626.00" xmlns="http://www.w3.org/2000/svg" xmlns:xlink="http://www.w3.org/1999/xlink">
<g id="graph0" class="graph" transform="scale(1 1) rotate(0) translate(4 622)">
<title>models_diagram</title>
<polygon fill="none" stroke="none" points="-4,4 -4,-622 914,-622 914,4 -4,4"/>
<!-- _diagram_info -->
<g id="node1" class="node"><title>_diagram_info</title>
<text text-anchor="start" x="8" y="-566.6" font-family="Times,serif" font-size="13.00">Models diagram</text>
<text text-anchor="start" x="8" y="-552.6" font-family="Times,serif" font-size="13.00">Date: Mar 06 2018 &#45; 12:18</text>
<text text-anchor="start" x="8" y="-538.6" font-family="Times,serif" font-size="13.00">Migration version: 20180306151010</text>
<text text-anchor="start" x="8" y="-524.6" font-family="Times,serif" font-size="13.00">Generated by RailRoady 1.5.3</text>
<text text-anchor="start" x="8" y="-510.6" font-family="Times,serif" font-size="13.00">http://railroady.prestonlee.com</text>
</g>
<!-- Product -->
<g id="node2" class="node"><title>Product</title>
<path fill="none" stroke="black" d="M244,-481.5C244,-481.5 464,-481.5 464,-481.5 470,-481.5 476,-487.5 476,-493.5 476,-493.5 476,-590.5 476,-590.5 476,-596.5 470,-602.5 464,-602.5 464,-602.5 244,-602.5 244,-602.5 238,-602.5 232,-596.5 232,-590.5 232,-590.5 232,-493.5 232,-493.5 232,-487.5 238,-481.5 244,-481.5"/>
<text text-anchor="middle" x="354" y="-587.3" font-family="Times,serif" font-size="14.00">Product</text>
<polyline fill="none" stroke="black" points="232,-579.5 476,-579.5 "/>
<text text-anchor="start" x="240" y="-564.3" font-family="Times,serif" font-size="14.00">id :bigint</text>
<text text-anchor="start" x="240" y="-549.3" font-family="Times,serif" font-size="14.00">name :character varying</text>
<text text-anchor="start" x="240" y="-534.3" font-family="Times,serif" font-size="14.00">photo :character varying</text>
<text text-anchor="start" x="240" y="-519.3" font-family="Times,serif" font-size="14.00">price :integer</text>
<text text-anchor="start" x="240" y="-504.3" font-family="Times,serif" font-size="14.00">created_at :timestamp without time zone</text>
<text text-anchor="start" x="240" y="-489.3" font-family="Times,serif" font-size="14.00">updated_at :timestamp without time zone</text>
</g>
<!-- User -->
<g id="node3" class="node"><title>User</title>
<path fill="none" stroke="black" d="M116.5,-188.5C116.5,-188.5 405.5,-188.5 405.5,-188.5 411.5,-188.5 417.5,-194.5 417.5,-200.5 417.5,-200.5 417.5,-417.5 417.5,-417.5 417.5,-423.5 411.5,-429.5 405.5,-429.5 405.5,-429.5 116.5,-429.5 116.5,-429.5 110.5,-429.5 104.5,-423.5 104.5,-417.5 104.5,-417.5 104.5,-200.5 104.5,-200.5 104.5,-194.5 110.5,-188.5 116.5,-188.5"/>
<text text-anchor="middle" x="261" y="-414.3" font-family="Times,serif" font-size="14.00">User</text>
<polyline fill="none" stroke="black" points="104.5,-406.5 417.5,-406.5 "/>
<text text-anchor="start" x="112.5" y="-391.3" font-family="Times,serif" font-size="14.00">id :bigint</text>
<text text-anchor="start" x="112.5" y="-376.3" font-family="Times,serif" font-size="14.00">email :character varying</text>
<text text-anchor="start" x="112.5" y="-361.3" font-family="Times,serif" font-size="14.00">encrypted_password :character varying</text>
<text text-anchor="start" x="112.5" y="-346.3" font-family="Times,serif" font-size="14.00">reset_password_token :character varying</text>
<text text-anchor="start" x="112.5" y="-331.3" font-family="Times,serif" font-size="14.00">reset_password_sent_at :timestamp without time zone</text>
<text text-anchor="start" x="112.5" y="-316.3" font-family="Times,serif" font-size="14.00">remember_created_at :timestamp without time zone</text>
<text text-anchor="start" x="112.5" y="-301.3" font-family="Times,serif" font-size="14.00">sign_in_count :integer</text>
<text text-anchor="start" x="112.5" y="-286.3" font-family="Times,serif" font-size="14.00">current_sign_in_at :timestamp without time zone</text>
<text text-anchor="start" x="112.5" y="-271.3" font-family="Times,serif" font-size="14.00">last_sign_in_at :timestamp without time zone</text>
<text text-anchor="start" x="112.5" y="-256.3" font-family="Times,serif" font-size="14.00">current_sign_in_ip :inet</text>
<text text-anchor="start" x="112.5" y="-241.3" font-family="Times,serif" font-size="14.00">last_sign_in_ip :inet</text>
<text text-anchor="start" x="112.5" y="-226.3" font-family="Times,serif" font-size="14.00">name :character varying</text>
<text text-anchor="start" x="112.5" y="-211.3" font-family="Times,serif" font-size="14.00">created_at :timestamp without time zone</text>
<text text-anchor="start" x="112.5" y="-196.3" font-family="Times,serif" font-size="14.00">updated_at :timestamp without time zone</text>
</g>
<!-- Product&#45;&gt;User -->
<g id="edge2" class="edge"><title>Product&#45;&gt;User</title>
<path fill="none" stroke="#86d979" d="M326.096,-471.691C321.903,-461.276 317.469,-450.261 312.965,-439.074"/>
<polygon fill="#86d979" stroke="#86d979" points="326.195,-471.935 325.755,-482.892 328.062,-476.573 329.929,-481.211 329.929,-481.211 329.929,-481.211 328.062,-476.573 334.104,-479.531 326.195,-471.935 326.195,-471.935"/>
<polygon fill="#86d979" stroke="#86d979" points="312.904,-438.923 313.344,-427.966 311.037,-434.285 309.169,-429.646 309.169,-429.646 309.169,-429.646 311.037,-434.285 304.995,-431.327 312.904,-438.923 312.904,-438.923"/>
</g>
<!-- Order -->
<g id="node5" class="node"><title>Order</title>
<path fill="none" stroke="black" d="M243,-0.5C243,-0.5 463,-0.5 463,-0.5 469,-0.5 475,-6.5 475,-12.5 475,-12.5 475,-139.5 475,-139.5 475,-145.5 469,-151.5 463,-151.5 463,-151.5 243,-151.5 243,-151.5 237,-151.5 231,-145.5 231,-139.5 231,-139.5 231,-12.5 231,-12.5 231,-6.5 237,-0.5 243,-0.5"/>
<text text-anchor="middle" x="353" y="-136.3" font-family="Times,serif" font-size="14.00">Order</text>
<polyline fill="none" stroke="black" points="231,-128.5 475,-128.5 "/>
<text text-anchor="start" x="239" y="-113.3" font-family="Times,serif" font-size="14.00">id :bigint</text>
<text text-anchor="start" x="239" y="-98.3" font-family="Times,serif" font-size="14.00">payed :boolean</text>
<text text-anchor="start" x="239" y="-83.3" font-family="Times,serif" font-size="14.00">user_id :bigint</text>
<text text-anchor="start" x="239" y="-68.3" font-family="Times,serif" font-size="14.00">product_id :bigint</text>
<text text-anchor="start" x="239" y="-53.3" font-family="Times,serif" font-size="14.00">created_at :timestamp without time zone</text>
<text text-anchor="start" x="239" y="-38.3" font-family="Times,serif" font-size="14.00">updated_at :timestamp without time zone</text>
<text text-anchor="start" x="239" y="-23.3" font-family="Times,serif" font-size="14.00">quantity :integer</text>
<text text-anchor="start" x="239" y="-8.3" font-family="Times,serif" font-size="14.00">billing_id :bigint</text>
</g>
<!-- Product&#45;&gt;Order -->
<g id="edge1" class="edge"><title>Product&#45;&gt;Order</title>
<path fill="none" stroke="#c7a865" d="M406.652,-474.236C415.034,-460.327 422.437,-445.241 427,-430 457.845,-326.962 458.168,-290.941 427,-188 424.181,-178.69 420.295,-169.447 415.769,-160.5"/>
<ellipse fill="none" stroke="#c7a865" cx="404.305" cy="-478.002" rx="4.00002" ry="4.00002"/>
<polygon fill="#c7a865" stroke="#c7a865" points="415.758,-160.479 415.013,-149.538 413.401,-156.069 411.044,-151.66 411.044,-151.66 411.044,-151.66 413.401,-156.069 407.075,-153.781 415.758,-160.479 415.758,-160.479"/>
</g>
<!-- User&#45;&gt;Order -->
<g id="edge3" class="edge"><title>User&#45;&gt;Order</title>
<path fill="none" stroke="#3441bc" d="M311.658,-180.805C314.323,-174.113 316.967,-167.474 319.554,-160.978"/>
<ellipse fill="none" stroke="#3441bc" cx="310.097" cy="-184.724" rx="4.00001" ry="4.00001"/>
<polygon fill="#3441bc" stroke="#3441bc" points="319.599,-160.866 327.48,-153.241 321.449,-156.221 323.299,-151.575 323.299,-151.575 323.299,-151.575 321.449,-156.221 319.118,-149.91 319.599,-160.866 319.599,-160.866"/>
</g>
<!-- ApplicationRecord -->
<g id="node4" class="node"><title>ApplicationRecord</title>
<ellipse fill="none" stroke="black" cx="571" cy="-542" rx="77.1866" ry="18"/>
<text text-anchor="middle" x="571" y="-538.3" font-family="Times,serif" font-size="14.00">ApplicationRecord</text>
</g>
<!-- Billing -->
<g id="node6" class="node"><title>Billing</title>
<path fill="none" stroke="black" d="M678,-466.5C678,-466.5 898,-466.5 898,-466.5 904,-466.5 910,-472.5 910,-478.5 910,-478.5 910,-605.5 910,-605.5 910,-611.5 904,-617.5 898,-617.5 898,-617.5 678,-617.5 678,-617.5 672,-617.5 666,-611.5 666,-605.5 666,-605.5 666,-478.5 666,-478.5 666,-472.5 672,-466.5 678,-466.5"/>
<text text-anchor="middle" x="788" y="-602.3" font-family="Times,serif" font-size="14.00">Billing</text>
<polyline fill="none" stroke="black" points="666,-594.5 910,-594.5 "/>
<text text-anchor="start" x="674" y="-579.3" font-family="Times,serif" font-size="14.00">id :bigint</text>
<text text-anchor="start" x="674" y="-564.3" font-family="Times,serif" font-size="14.00">code :character varying</text>
<text text-anchor="start" x="674" y="-549.3" font-family="Times,serif" font-size="14.00">payment_method :character varying</text>
<text text-anchor="start" x="674" y="-534.3" font-family="Times,serif" font-size="14.00">amount :numeric(5,2)</text>
<text text-anchor="start" x="674" y="-519.3" font-family="Times,serif" font-size="14.00">currency :character varying</text>
<text text-anchor="start" x="674" y="-504.3" font-family="Times,serif" font-size="14.00">user_id :bigint</text>
<text text-anchor="start" x="674" y="-489.3" font-family="Times,serif" font-size="14.00">created_at :timestamp without time zone</text>
<text text-anchor="start" x="674" y="-474.3" font-family="Times,serif" font-size="14.00">updated_at :timestamp without time zone</text>
</g>
</g>
</svg>
