<?xml version="1.0" encoding="UTF-8" standalone="no"?>
<!DOCTYPE svg PUBLIC "-//W3C//DTD SVG 1.1//EN"
 "http://www.w3.org/Graphics/SVG/1.1/DTD/svg11.dtd">
<!-- Generated by graphviz version 2.38.0 (20140413.2041)
 -->
<!-- Title: models_diagram Pages: 1 -->
<svg width="577pt" height="230pt"
 viewBox="0.00 0.00 577.10 230.00" xmlns="http://www.w3.org/2000/svg" xmlns:xlink="http://www.w3.org/1999/xlink">
<g id="graph0" class="graph" transform="scale(1 1) rotate(0) translate(4 226)">
<title>models_diagram</title>
<polygon fill="none" stroke="none" points="-4,4 -4,-226 573.097,-226 573.097,4 -4,4"/>
<!-- _diagram_info -->
<g id="node1" class="node"><title>_diagram_info</title>
<text text-anchor="start" x="8" y="-207.6" font-family="Times,serif" font-size="13.00">Models diagram</text>
<text text-anchor="start" x="8" y="-193.6" font-family="Times,serif" font-size="13.00">Date: Mar 06 2018 &#45; 12:18</text>
<text text-anchor="start" x="8" y="-179.6" font-family="Times,serif" font-size="13.00">Migration version: 20180306151010</text>
<text text-anchor="start" x="8" y="-165.6" font-family="Times,serif" font-size="13.00">Generated by RailRoady 1.5.3</text>
<text text-anchor="start" x="8" y="-151.6" font-family="Times,serif" font-size="13.00">http://railroady.prestonlee.com</text>
</g>
<!-- Product -->
<g id="node2" class="node"><title>Product</title>
<ellipse fill="none" stroke="black" cx="270" cy="-183" rx="38.1938" ry="18"/>
<text text-anchor="middle" x="270" y="-179.3" font-family="Times,serif" font-size="14.00">Product</text>
</g>
<!-- User -->
<g id="node3" class="node"><title>User</title>
<ellipse fill="none" stroke="black" cx="242" cy="-90" rx="27.0966" ry="18"/>
<text text-anchor="middle" x="242" y="-86.3" font-family="Times,serif" font-size="14.00">User</text>
</g>
<!-- Product&#45;&gt;User -->
<g id="edge2" class="edge"><title>Product&#45;&gt;User</title>
<path fill="none" stroke="#189f8a" d="M261.668,-154.922C258.022,-143.073 253.76,-129.218 250.136,-117.443"/>
<polygon fill="#189f8a" stroke="#189f8a" points="261.792,-155.326 260.432,-166.207 263.263,-160.105 264.733,-164.884 264.733,-164.884 264.733,-164.884 263.263,-160.105 269.034,-163.56 261.792,-155.326 261.792,-155.326"/>
<polygon fill="#189f8a" stroke="#189f8a" points="250.089,-117.29 251.449,-106.409 248.619,-112.511 247.148,-107.732 247.148,-107.732 247.148,-107.732 248.619,-112.511 242.847,-109.056 250.089,-117.29 250.089,-117.29"/>
</g>
<!-- Order -->
<g id="node5" class="node"><title>Order</title>
<ellipse fill="none" stroke="black" cx="269" cy="-18" rx="31.3957" ry="18"/>
<text text-anchor="middle" x="269" y="-14.3" font-family="Times,serif" font-size="14.00">Order</text>
</g>
<!-- Product&#45;&gt;Order -->
<g id="edge1" class="edge"><title>Product&#45;&gt;Order</title>
<path fill="none" stroke="#edb66b" d="M274.067,-156.873C277.144,-134.569 280.453,-101.1 278,-72 277.283,-63.4991 275.931,-54.3119 274.488,-46.0122"/>
<ellipse fill="none" stroke="#edb66b" cx="273.486" cy="-160.884" rx="4.00001" ry="4.00001"/>
<polygon fill="#edb66b" stroke="#edb66b" points="274.473,-45.9257 277.079,-35.2741 273.563,-41.0091 272.654,-36.0925 272.654,-36.0925 272.654,-36.0925 273.563,-41.0091 268.229,-36.9109 274.473,-45.9257 274.473,-45.9257"/>
</g>
<!-- User&#45;&gt;Order -->
<g id="edge3" class="edge"><title>User&#45;&gt;Order</title>
<path fill="none" stroke="#fe36c4" d="M251.343,-64.7779C253.747,-58.544 256.347,-51.8046 258.793,-45.4634"/>
<ellipse fill="none" stroke="#fe36c4" cx="249.838" cy="-68.679" rx="4.00001" ry="4.00001"/>
<polygon fill="#fe36c4" stroke="#fe36c4" points="258.861,-45.2862 266.658,-37.5757 260.66,-40.6212 262.46,-35.9562 262.46,-35.9562 262.46,-35.9562 260.66,-40.6212 258.261,-34.3368 258.861,-45.2862 258.861,-45.2862"/>
</g>
<!-- ApplicationRecord -->
<g id="node4" class="node"><title>ApplicationRecord</title>
<ellipse fill="none" stroke="black" cx="404" cy="-183" rx="77.1866" ry="18"/>
<text text-anchor="middle" x="404" y="-179.3" font-family="Times,serif" font-size="14.00">ApplicationRecord</text>
</g>
<!-- Billing -->
<g id="node6" class="node"><title>Billing</title>
<ellipse fill="none" stroke="black" cx="534" cy="-183" rx="35.194" ry="18"/>
<text text-anchor="middle" x="534" y="-179.3" font-family="Times,serif" font-size="14.00">Billing</text>
</g>
</g>
</svg>
